<?xml version="1.0" encoding="UTF-8" standalone="no"?>
<!DOCTYPE svg PUBLIC "-//W3C//DTD SVG 1.1//EN" "http://www.w3.org/Graphics/SVG/1.1/DTD/svg11.dtd">
<svg width="100%" height="100%" viewBox="0 0 2481 3508" version="1.1" xmlns="http://www.w3.org/2000/svg" xmlns:xlink="http://www.w3.org/1999/xlink" xml:space="preserve" xmlns:serif="http://www.serif.com/" style="fill-rule:evenodd;clip-rule:evenodd;stroke-linecap:square;stroke-linejoin:round;stroke-miterlimit:1.5;">
    <g>
        <g transform="matrix(1.44726,0,0,1.46002,-572.435,-1363.54)">
            <path d="M621.027,2959.48C907.866,2699.71 1089.47,2327.62 1094.68,1913.74C1143.22,1933.95 1196.52,1945.12 1252.43,1945.12C1306.82,1945.12 1358.73,1934.56 1406.19,1915.38C1411.86,2328.61 1593.36,2700.05 1879.82,2959.48L621.027,2959.48ZM1094.68,1913.74C1091.89,1912.58 1089.12,1911.39 1086.36,1910.16L1094.8,1891.91C1094.8,1893.07 1094.8,1894.24 1094.8,1895.4C1094.8,1901.52 1094.76,1907.64 1094.68,1913.74ZM1418.51,1910.16C1414.44,1911.97 1410.33,1913.71 1406.19,1915.38C1406.1,1908.73 1406.05,1902.07 1406.05,1895.4C1406.05,1891.37 1406.07,1887.34 1406.1,1883.32L1418.51,1910.16Z"/>
            <path d="M1087.42,1918.42C1086.08,1917.85 1084.75,1917.27 1083.42,1916.68C1081.67,1915.9 1080.3,1914.46 1079.62,1912.68C1078.94,1910.9 1079.01,1908.92 1079.81,1907.19L1088.25,1888.94C1089.66,1885.89 1093.02,1884.22 1096.32,1884.93C1099.62,1885.64 1101.99,1888.54 1101.99,1891.89C1102,1893.06 1102,1894.23 1102,1895.4C1102,1899.94 1101.98,1904.47 1101.93,1908.99C1148.41,1927.69 1199.22,1937.99 1252.43,1937.99C1304.12,1937.99 1353.55,1928.27 1398.93,1910.58C1398.88,1905.52 1398.85,1900.47 1398.85,1895.4C1398.85,1891.35 1398.87,1887.3 1398.9,1883.26C1398.93,1879.91 1401.3,1877.04 1404.6,1876.34C1407.89,1875.64 1411.24,1877.3 1412.64,1880.34L1425.05,1907.19C1425.85,1908.92 1425.92,1910.9 1425.24,1912.68C1424.57,1914.46 1423.2,1915.9 1421.44,1916.68C1418.8,1917.85 1416.13,1919 1413.46,1920.12C1420.45,2329.36 1600.75,2697.08 1884.68,2954.22C1884.98,2954.49 1885.26,2954.79 1885.51,2955.11C1886.45,2956.31 1887.02,2957.83 1887.02,2959.48C1887.02,2959.54 1887.02,2959.59 1887.02,2959.64C1886.98,2961.24 1886.42,2962.72 1885.49,2963.89C1885.22,2964.22 1884.93,2964.53 1884.62,2964.81C1883.35,2965.93 1881.66,2966.62 1879.82,2966.62L621.027,2966.62L616.172,2954.22C900.489,2696.73 1080.9,2328.35 1087.42,1918.42ZM639.405,2952.35L1861.44,2952.35C1583.74,2694.45 1407.59,2330.39 1399.17,1925.78C1353.54,1942.89 1304.08,1952.26 1252.43,1952.26C1199.28,1952.26 1148.44,1942.33 1101.71,1924.26C1093.7,2329.48 917.455,2694.13 639.405,2952.35Z" style="fill:white;"/>
        </g>
        <g transform="matrix(1,0,0,1,0,-40.9823)">
            <rect x="326.35" y="2998.35" width="1821.8" height="155.195" style="stroke:white;stroke-width:20.83px;"/>
        </g>
    </g>
    <g transform="matrix(0.708667,0,0,0.708667,361.299,467.317)">
        <path d="M1011.85,1430.56C1007.81,1428.86 1003.8,1427.12 999.803,1425.34C793.517,1333.21 649.606,1126.19 649.606,885.827C649.606,733.108 707.702,593.852 802.979,488.97C911.044,370.012 1066.94,295.276 1240.16,295.276C1411.35,295.276 1565.63,368.279 1673.54,484.825C1771.07,590.169 1830.71,731.088 1830.71,885.827C1830.71,1126.19 1686.8,1333.21 1480.51,1425.34C1474.62,1427.97 1468.67,1430.51 1462.68,1432.95C1393.99,1460.95 1318.86,1476.38 1240.16,1476.38C1159.24,1476.38 1082.1,1460.07 1011.85,1430.56Z" style="stroke:white;stroke-width:29.4px;"/>
    </g>
</svg>
