<?xml version="1.0" encoding="UTF-8" standalone="no"?>
<!DOCTYPE svg PUBLIC "-//W3C//DTD SVG 1.1//EN" "http://www.w3.org/Graphics/SVG/1.1/DTD/svg11.dtd">
<svg width="100%" height="100%" viewBox="0 0 2953 2953" version="1.1" xmlns="http://www.w3.org/2000/svg" xmlns:xlink="http://www.w3.org/1999/xlink" xml:space="preserve" xmlns:serif="http://www.serif.com/" style="fill-rule:evenodd;clip-rule:evenodd;stroke-linecap:square;stroke-linejoin:round;stroke-miterlimit:1.5;">
    <g>
        <g transform="matrix(1.43191,0,0,1.44453,-314.112,-1558.54)">
            <path d="M621.027,2959.48C907.866,2699.71 1089.47,2327.62 1094.68,1913.74C1143.22,1933.95 1196.52,1945.12 1252.43,1945.12C1306.82,1945.12 1358.73,1934.56 1406.19,1915.38C1411.86,2328.61 1593.36,2700.05 1879.82,2959.48L621.027,2959.48Z" style="fill:white;"/>
            <path d="M1879.82,2966.7L621.027,2966.7L616.12,2954.16C901.524,2695.69 1082.22,2325.46 1087.41,1913.65C1087.44,1911.25 1088.67,1909.03 1090.69,1907.71C1092.72,1906.39 1095.27,1906.16 1097.5,1907.09C1145.17,1926.94 1197.52,1937.91 1252.43,1937.91C1305.84,1937.91 1356.83,1927.54 1403.44,1908.7C1405.67,1907.8 1408.2,1908.05 1410.21,1909.37C1412.21,1910.68 1413.43,1912.9 1413.46,1915.28C1419.11,2326.44 1599.7,2696.03 1884.73,2954.16L1879.82,2966.7ZM639.6,2952.27L1861.25,2952.27C1583.64,2694.4 1407.54,2330.41 1399.09,1925.89C1353.48,1942.98 1304.05,1952.33 1252.43,1952.33C1199.31,1952.33 1148.5,1942.42 1101.79,1924.37C1093.75,2329.5 917.557,2694.07 639.6,2952.27Z"/>
        </g>
        <g transform="matrix(0.989393,0,0,0.989393,252.251,-250.014)">
            <rect x="326.35" y="2998.35" width="1821.8" height="155.195" style="fill:white;stroke:black;stroke-width:21.06px;"/>
        </g>
    </g>
    <g transform="matrix(1.2167,0,0,1.20356,-26.1087,42.6955)">
        <path d="M1209.93,148.861L1209.93,33.22L1264.57,33.22L1264.57,148.861L1398.39,148.861L1398.39,203.497L1264.57,203.497L1264.57,326.41L1209.93,326.41L1209.93,203.497L1076.11,203.497L1076.11,148.861L1209.93,148.861Z" style="fill:white;stroke:black;stroke-width:17.22px;"/>
    </g>
    <g transform="matrix(0.845882,0,0,0.881423,429.809,-73.8684)">
        <path d="M1338.48,560.001C1402.78,506.903 1485.2,474.988 1575.02,474.988C1680.45,474.988 1775.68,518.953 1843.38,589.532C1931.93,682.075 1959.28,814.304 1914.26,932.288C1868.53,1052.2 1790.82,1255.89 1790.82,1255.89L683.686,1255.89C683.686,1255.89 601.889,1041.51 556.73,923.145C522.865,834.385 531.926,735.765 581.454,654.062C646.739,546.746 764.795,474.988 899.479,474.988C990.948,474.988 1074.75,508.086 1139.55,562.947C1162.53,532.443 1199.06,512.707 1240.16,512.707C1279.92,512.707 1315.4,531.178 1338.48,560.001Z" style="fill:white;stroke:black;stroke-width:24.12px;"/>
    </g>
    <g transform="matrix(0.989393,0,0,0.989393,252.251,-209.466)">
        <path d="M1851.3,1461.12C1850.28,1462.06 1849.24,1462.97 1848.19,1463.87L1551.05,1523.1L929.263,1523.1L631.677,1463.78C630.666,1462.91 629.669,1462.03 628.685,1461.12C627.447,1459.99 626.23,1458.82 625.036,1457.63C602.956,1435.55 590.551,1405.6 590.551,1374.38C590.551,1308.94 643.597,1255.89 709.033,1255.89L1771.82,1255.89C1836.96,1255.89 1889.76,1308.7 1889.76,1373.83C1889.76,1405.2 1877.3,1435.29 1855.12,1457.47C1853.87,1458.72 1852.6,1459.94 1851.3,1461.12Z" style="fill:white;stroke:black;stroke-width:21.06px;"/>
    </g>
</svg>
