<?xml version="1.0" encoding="UTF-8" standalone="no"?>
<!DOCTYPE svg PUBLIC "-//W3C//DTD SVG 1.1//EN" "http://www.w3.org/Graphics/SVG/1.1/DTD/svg11.dtd">
<svg width="100%" height="100%" viewBox="0 0 2953 2953" version="1.1" xmlns="http://www.w3.org/2000/svg" xmlns:xlink="http://www.w3.org/1999/xlink" xml:space="preserve" xmlns:serif="http://www.serif.com/" style="fill-rule:evenodd;clip-rule:evenodd;stroke-linecap:square;stroke-linejoin:round;stroke-miterlimit:1.5;">
    <g transform="matrix(1.13959,0,0,1.13285,66.4158,-655.972)">
        <g transform="matrix(1.44726,0,0,1.46002,-572.435,-1363.54)">
            <path d="M621.027,2959.48C907.866,2699.71 1089.47,2327.62 1094.68,1913.74C1143.22,1933.95 1196.52,1945.12 1252.43,1945.12C1306.82,1945.12 1358.73,1934.56 1406.19,1915.38C1411.86,2328.61 1593.36,2700.05 1879.82,2959.48L621.027,2959.48ZM1094.68,1913.74C1091.89,1912.58 1089.12,1911.39 1086.36,1910.16L1094.8,1891.91C1094.8,1893.07 1094.8,1894.24 1094.8,1895.4C1094.8,1901.52 1094.76,1907.64 1094.68,1913.74ZM1418.51,1910.16C1414.44,1911.97 1410.33,1913.71 1406.19,1915.38C1406.1,1908.73 1406.05,1902.07 1406.05,1895.4C1406.05,1891.37 1406.07,1887.34 1406.1,1883.32L1418.51,1910.16Z"/>
            <path d="M1088.31,1917.89C1086.8,1917.24 1085.3,1916.59 1083.8,1915.92C1082.25,1915.24 1081.04,1913.96 1080.45,1912.39C1079.85,1910.81 1079.91,1909.06 1080.62,1907.53L1089.06,1889.27C1090.3,1886.59 1093.25,1885.12 1096.14,1885.75C1099.04,1886.38 1101.1,1888.94 1101.11,1891.89C1101.11,1893.06 1101.12,1894.23 1101.12,1895.4C1101.12,1900.12 1101.09,1904.83 1101.05,1909.54C1147.78,1928.42 1198.89,1938.83 1252.43,1938.83C1304.45,1938.83 1354.18,1929.01 1399.82,1911.13C1399.76,1905.9 1399.74,1900.65 1399.74,1895.4C1399.74,1891.35 1399.75,1887.31 1399.79,1883.26C1399.81,1880.32 1401.88,1877.78 1404.77,1877.16C1407.66,1876.54 1410.6,1878 1411.84,1880.68L1424.25,1907.53C1424.95,1909.06 1425.02,1910.81 1424.42,1912.39C1423.82,1913.96 1422.62,1915.24 1421.07,1915.92C1418.25,1917.17 1415.42,1918.39 1412.57,1919.57C1419.41,2329.27 1599.85,2697.42 1884.07,2954.82C1884.35,2955.07 1884.6,2955.35 1884.82,2955.63C1885.65,2956.7 1886.14,2958.03 1886.14,2959.48C1886.14,2959.53 1886.14,2959.58 1886.14,2959.62C1886.11,2961.04 1885.61,2962.34 1884.79,2963.37C1884.56,2963.66 1884.31,2963.93 1884.03,2964.18C1882.91,2965.18 1881.44,2965.78 1879.82,2965.78L621.027,2965.78L616.781,2954.82C901.387,2697.07 1081.94,2328.26 1088.31,1917.89ZM637.241,2953.19L1863.61,2953.19C1584.89,2695.1 1408.13,2330.17 1400.03,1924.56C1354.17,1941.91 1304.41,1951.42 1252.43,1951.42C1198.94,1951.42 1147.81,1941.35 1100.85,1923.02C1093.17,2329.25 916.306,2694.77 637.241,2953.19Z" style="fill:white;"/>
        </g>
        <g transform="matrix(1,0,0,1,0,-40.9823)">
            <rect x="326.35" y="2998.35" width="1821.8" height="155.195" style="stroke:white;stroke-width:18.34px;"/>
        </g>
    </g>
    <g transform="matrix(1.14066,0,0,1.1339,-102.578,-148.336)">
        <circle cx="1384.25" cy="646.233" r="442.501" style="stroke:white;stroke-width:18.32px;"/>
    </g>
</svg>
