<?xml version="1.0" encoding="UTF-8" standalone="no"?>
<!DOCTYPE svg PUBLIC "-//W3C//DTD SVG 1.1//EN" "http://www.w3.org/Graphics/SVG/1.1/DTD/svg11.dtd">
<svg width="100%" height="100%" viewBox="0 0 2953 2953" version="1.1" xmlns="http://www.w3.org/2000/svg" xmlns:xlink="http://www.w3.org/1999/xlink" xml:space="preserve" xmlns:serif="http://www.serif.com/" style="fill-rule:evenodd;clip-rule:evenodd;stroke-linecap:square;stroke-linejoin:round;stroke-miterlimit:1.5;">
    <g transform="matrix(1.04742,0,0,1.04742,180.452,-390.091)">
        <g transform="matrix(1.44726,0,0,1.46002,-572.435,-1363.54)">
            <path d="M621.027,2959.48C907.866,2699.71 1089.47,2327.62 1094.68,1913.74C1143.22,1933.95 1196.52,1945.12 1252.43,1945.12C1306.82,1945.12 1358.73,1934.56 1406.19,1915.38C1411.86,2328.61 1593.36,2700.05 1879.82,2959.48L621.027,2959.48Z" style="fill:white;"/>
            <path d="M1884.46,2954.46C1884.75,2954.72 1885.01,2955 1885.25,2955.3C1886.15,2956.46 1886.69,2957.91 1886.69,2959.48C1886.69,2959.53 1886.69,2959.59 1886.69,2959.64C1886.66,2961.16 1886.12,2962.57 1885.23,2963.69C1884.98,2964.01 1884.7,2964.3 1884.4,2964.57C1883.19,2965.64 1881.58,2966.3 1879.82,2966.3L621.027,2966.3L616.392,2954.46C901.876,2695.91 1082.62,2325.58 1087.81,1913.66C1087.84,1911.39 1089.01,1909.29 1090.92,1908.04C1092.83,1906.8 1095.24,1906.58 1097.35,1907.46C1145.07,1927.33 1197.47,1938.31 1252.43,1938.31C1305.9,1938.31 1356.93,1927.92 1403.59,1909.07C1405.7,1908.22 1408.09,1908.46 1409.98,1909.7C1411.88,1910.94 1413.03,1913.04 1413.06,1915.29C1418.71,2326.56 1599.35,2696.25 1884.46,2954.46ZM638.58,2952.67L1862.27,2952.67C1584.18,2694.71 1407.78,2330.31 1399.49,1925.31C1353.77,1942.51 1304.2,1951.93 1252.43,1951.93C1199.16,1951.93 1148.21,1941.96 1101.39,1923.79C1093.51,2329.4 917.021,2694.38 638.58,2952.67Z"/>
        </g>
        <g transform="matrix(1,0,0,1,0,-40.9823)">
            <rect x="326.35" y="2998.35" width="1821.8" height="155.195" style="fill:white;stroke:black;stroke-width:19.89px;"/>
        </g>
    </g>
    <g transform="matrix(1.04742,0,0,1.17865,180.452,-574.872)">
        <path d="M1522.39,892.952L1863.89,626.167L1754.01,1408.14L1533.8,1281L1537.44,1290.03L945.776,1290.03L950.31,1278.82L726.304,1408.14L616.429,626.167L957.921,892.952L989.086,717.494L1116.11,868.487L1241.61,557.885L1366.17,866.153L1491.23,717.494L1522.39,892.952Z" style="fill:white;stroke:black;stroke-width:18.69px;"/>
    </g>
    <g transform="matrix(1.04742,0,0,1.04742,180.452,-390.091)">
        <path d="M1851.3,1461.12C1850.28,1462.06 1849.24,1462.97 1848.19,1463.87L1551.05,1523.1L929.263,1523.1L631.677,1463.78C630.666,1462.91 629.669,1462.03 628.685,1461.12C627.447,1459.99 626.23,1458.82 625.036,1457.63C602.956,1435.55 590.551,1405.6 590.551,1374.38C590.551,1308.94 643.597,1255.89 709.033,1255.89L1771.82,1255.89C1836.96,1255.89 1889.76,1308.7 1889.76,1373.83C1889.76,1405.2 1877.3,1435.29 1855.12,1457.47C1853.87,1458.72 1852.6,1459.94 1851.3,1461.12Z" style="fill:white;stroke:black;stroke-width:19.89px;"/>
    </g>
</svg>
