<?xml version="1.0" encoding="UTF-8" standalone="no"?>
<!DOCTYPE svg PUBLIC "-//W3C//DTD SVG 1.1//EN" "http://www.w3.org/Graphics/SVG/1.1/DTD/svg11.dtd">
<svg width="100%" height="100%" viewBox="0 0 2953 2953" version="1.1" xmlns="http://www.w3.org/2000/svg" xmlns:xlink="http://www.w3.org/1999/xlink" xml:space="preserve" xmlns:serif="http://www.serif.com/" style="fill-rule:evenodd;clip-rule:evenodd;stroke-linecap:square;stroke-linejoin:round;stroke-miterlimit:1.5;">
    <g transform="matrix(1.16683,0,0,1.14405,50.8454,-690.86)">
        <g transform="matrix(1.47194,0,0,1.41588,-618.84,-1232.91)">
            <path d="M621.027,2959.48C907.866,2699.71 1001.77,2287.34 1006.99,1873.46C1055.53,1893.67 1207.04,1922.95 1262.95,1922.95C1317.34,1922.95 1474.67,1892.86 1522.13,1873.69C1527.81,2286.91 1593.36,2700.05 1879.82,2959.48L621.027,2959.48Z"/>
            <path d="M1883.76,2954.6C1884.12,2954.92 1884.44,2955.28 1884.71,2955.67C1885.45,2956.74 1885.89,2958.06 1885.89,2959.48C1885.89,2959.53 1885.89,2959.57 1885.89,2959.62C1885.86,2961.06 1885.38,2962.39 1884.6,2963.45C1884.38,2963.74 1884.14,2964.01 1883.88,2964.26C1882.81,2965.29 1881.38,2965.91 1879.82,2965.91L621.027,2965.91L617.088,2954.6C902.62,2696.01 995.728,2285.37 1000.92,1873.37C1000.95,1871.26 1001.95,1869.3 1003.6,1868.12C1005.26,1866.94 1007.35,1866.7 1009.2,1867.48C1057.32,1887.51 1207.53,1916.52 1262.95,1916.52C1316.88,1916.52 1472.91,1886.69 1519.97,1867.68C1521.82,1866.93 1523.9,1867.19 1525.54,1868.37C1527.18,1869.55 1528.17,1871.5 1528.2,1873.59C1533.85,2284.93 1598.61,2696.35 1883.76,2954.6ZM637.243,2953.05L1863.63,2953.05C1588.24,2693.74 1522.64,2288.88 1516.2,1882.71C1460.64,1902.03 1315.01,1929.38 1262.95,1929.38C1209.4,1929.38 1068.86,1902.73 1012.92,1882.59C1006.52,2289.35 913.762,2693.46 637.243,2953.05Z" style="fill:white;"/>
        </g>
        <g transform="matrix(1.01706,0,0,1,-36.641,-40.9823)">
            <rect x="326.35" y="2998.35" width="1821.8" height="155.195" style="stroke:white;stroke-width:17.87px;"/>
        </g>
    </g>
    <g transform="matrix(0.857545,0,0,1.14405,415.379,-676.781)">
        <path d="M1750.4,663.83L2020.93,663.83L2020.93,1408.46L1237.25,1534.93L453.572,1408.46L453.572,663.83L738.582,663.83L738.582,1099.38L909.699,1099.38L909.699,663.83L1151.69,663.83L1151.69,1099.38L1322.81,1099.38L1322.81,663.83L1579.29,663.83L1579.29,1099.38L1750.4,1099.38L1750.4,663.83Z" style="stroke:white;stroke-width:20.61px;"/>
    </g>
</svg>
