<?xml version="1.0" encoding="UTF-8" standalone="no"?>
<!DOCTYPE svg PUBLIC "-//W3C//DTD SVG 1.1//EN" "http://www.w3.org/Graphics/SVG/1.1/DTD/svg11.dtd">
<svg width="100%" height="100%" viewBox="0 0 2481 3508" version="1.1" xmlns="http://www.w3.org/2000/svg" xmlns:xlink="http://www.w3.org/1999/xlink" xml:space="preserve" xmlns:serif="http://www.serif.com/" style="fill-rule:evenodd;clip-rule:evenodd;stroke-linecap:square;stroke-linejoin:round;stroke-miterlimit:1.5;">
    <g>
        <g transform="matrix(1.44726,0,0,1.46002,-572.435,-1363.54)">
            <path d="M621.027,2959.48C907.866,2699.71 1089.47,2327.62 1094.68,1913.74C1143.22,1933.95 1196.52,1945.12 1252.43,1945.12C1306.82,1945.12 1358.73,1934.56 1406.19,1915.38C1411.86,2328.61 1593.36,2700.05 1879.82,2959.48L621.027,2959.48Z"/>
            <path d="M1884.68,2954.22C1884.98,2954.49 1885.26,2954.79 1885.51,2955.11C1886.45,2956.31 1887.02,2957.83 1887.02,2959.48C1887.02,2959.54 1887.02,2959.59 1887.02,2959.64C1886.98,2961.24 1886.42,2962.72 1885.49,2963.89C1885.22,2964.22 1884.93,2964.53 1884.62,2964.81C1883.35,2965.93 1881.66,2966.62 1879.82,2966.62L621.027,2966.62L616.172,2954.22C901.592,2695.73 1082.3,2325.49 1087.49,1913.65C1087.52,1911.28 1088.74,1909.08 1090.74,1907.77C1092.74,1906.47 1095.26,1906.24 1097.47,1907.16C1145.15,1927.02 1197.51,1937.99 1252.43,1937.99C1305.85,1937.99 1356.85,1927.61 1403.47,1908.77C1405.67,1907.88 1408.18,1908.13 1410.16,1909.43C1412.15,1910.73 1413.35,1912.92 1413.38,1915.28C1419.03,2326.46 1599.63,2696.07 1884.68,2954.22ZM639.405,2952.35L1861.44,2952.35C1583.74,2694.45 1407.59,2330.39 1399.17,1925.78C1353.54,1942.89 1304.08,1952.26 1252.43,1952.26C1199.28,1952.26 1148.44,1942.33 1101.71,1924.26C1093.7,2329.48 917.455,2694.13 639.405,2952.35Z" style="fill:white;"/>
        </g>
        <g transform="matrix(1,0,0,1,0,-40.9823)">
            <rect x="326.35" y="2998.35" width="1821.8" height="155.195" style="stroke:white;stroke-width:20.83px;"/>
        </g>
    </g>
    <g transform="matrix(1,0,0,1.12528,0,-176.415)">
        <path d="M1522.39,892.952L1863.89,626.167L1754.01,1408.14L1533.8,1281L1537.44,1290.03L945.776,1290.03L950.31,1278.82L726.304,1408.14L616.429,626.167L957.921,892.952L989.086,717.494L1116.11,868.487L1241.61,557.885L1366.17,866.153L1491.23,717.494L1522.39,892.952Z" style="stroke:white;stroke-width:19.57px;"/>
    </g>
    <path d="M1851.3,1461.12C1850.28,1462.06 1849.24,1462.97 1848.19,1463.87L1551.05,1523.1L929.263,1523.1L631.677,1463.78C630.666,1462.91 629.669,1462.03 628.685,1461.12C627.447,1459.99 626.23,1458.82 625.036,1457.63C602.956,1435.55 590.551,1405.6 590.551,1374.38C590.551,1308.94 643.597,1255.89 709.033,1255.89L1771.82,1255.89C1836.96,1255.89 1889.76,1308.7 1889.76,1373.83C1889.76,1405.2 1877.3,1435.29 1855.12,1457.47C1853.87,1458.72 1852.6,1459.94 1851.3,1461.12Z" style="stroke:white;stroke-width:20.83px;"/>
</svg>
