<?xml version="1.0" encoding="UTF-8" standalone="no"?>
<!DOCTYPE svg PUBLIC "-//W3C//DTD SVG 1.1//EN" "http://www.w3.org/Graphics/SVG/1.1/DTD/svg11.dtd">
<svg width="100%" height="100%" viewBox="0 0 2953 2953" version="1.1" xmlns="http://www.w3.org/2000/svg" xmlns:xlink="http://www.w3.org/1999/xlink" xml:space="preserve" xmlns:serif="http://www.serif.com/" style="fill-rule:evenodd;clip-rule:evenodd;stroke-linecap:square;stroke-linejoin:round;stroke-miterlimit:1.5;">
    <g transform="matrix(1.00361,0,0,1.00361,234.658,-253.724)">
        <g transform="matrix(1.44726,0,0,1.46002,-572.435,-1363.54)">
            <path d="M621.027,2959.48C907.866,2699.71 1089.47,2327.62 1094.68,1913.74C1143.22,1933.95 1196.52,1945.12 1252.43,1945.12C1306.82,1945.12 1358.73,1934.56 1406.19,1915.38C1411.86,2328.61 1593.36,2700.05 1879.82,2959.48L621.027,2959.48ZM1094.68,1913.74C1091.89,1912.58 1089.12,1911.39 1086.36,1910.16L1094.8,1891.91C1094.8,1893.07 1094.8,1894.24 1094.8,1895.4C1094.8,1901.52 1094.76,1907.64 1094.68,1913.74ZM1418.51,1910.16C1414.44,1911.97 1410.33,1913.71 1406.19,1915.38C1406.1,1908.73 1406.05,1902.07 1406.05,1895.4C1406.05,1891.37 1406.07,1887.34 1406.1,1883.32L1418.51,1910.16Z"/>
            <path d="M1087.44,1918.41C1086.1,1917.83 1084.77,1917.25 1083.43,1916.66C1081.68,1915.88 1080.32,1914.45 1079.65,1912.67C1078.97,1910.9 1079.04,1908.93 1079.84,1907.2L1088.28,1888.95C1089.68,1885.91 1093.02,1884.25 1096.32,1884.96C1099.61,1885.67 1101.96,1888.55 1101.97,1891.89C1101.97,1893.06 1101.97,1894.23 1101.97,1895.4C1101.97,1899.94 1101.95,1904.48 1101.91,1909.01C1148.39,1927.71 1199.21,1938.01 1252.43,1938.01C1304.13,1938.01 1353.56,1928.29 1398.96,1910.59C1398.91,1905.54 1398.88,1900.47 1398.88,1895.4C1398.88,1891.35 1398.9,1887.3 1398.93,1883.26C1398.96,1879.92 1401.32,1877.06 1404.6,1876.36C1407.89,1875.67 1411.22,1877.33 1412.62,1880.35L1425.03,1907.2C1425.83,1908.93 1425.89,1910.9 1425.22,1912.67C1424.55,1914.45 1423.18,1915.88 1421.43,1916.66C1418.78,1917.83 1416.12,1918.98 1413.43,1920.1C1420.42,2329.36 1600.73,2697.09 1884.66,2954.24L1879.82,2966.59L621.027,2966.59L616.19,2954.24C900.515,2696.74 1080.93,2328.34 1087.44,1918.41ZM639.339,2952.38L1861.51,2952.38C1583.78,2694.47 1407.6,2330.38 1399.19,1925.74C1353.56,1942.86 1304.09,1952.23 1252.43,1952.23C1199.27,1952.23 1148.43,1942.3 1101.69,1924.22C1093.69,2329.47 917.42,2694.15 639.339,2952.38Z" style="fill:white;"/>
        </g>
        <g transform="matrix(1,0,0,1,0,-40.9823)">
            <rect x="326.35" y="2998.35" width="1821.8" height="155.195" style="stroke:white;stroke-width:20.76px;"/>
        </g>
    </g>
    <g transform="matrix(1.00361,0,0,1.00361,234.658,-253.724)">
        <path d="M996.56,741.442C1111.28,550.123 1240.16,335.191 1240.16,335.191L1576.22,895.642C1673.04,1057.11 1647.61,1263.74 1514.54,1396.92C1483.52,1427.98 1448.5,1453.86 1410.49,1473.41C1406.31,1475.56 1402.1,1477.63 1397.85,1479.63C1349.17,1502.47 1295.93,1515.07 1240.16,1515.07C1182.81,1515.07 1128.15,1501.76 1078.37,1477.67C1075.5,1476.29 1072.66,1474.87 1069.83,1473.41C1031.82,1453.86 996.794,1427.98 965.776,1396.92C832.703,1263.74 807.28,1057.11 904.1,895.643C923.452,863.367 945.128,827.217 967.902,789.236L1150.61,941.777L1185.89,899.515L996.56,741.442Z" style="stroke:white;stroke-width:20.76px;"/>
    </g>
</svg>
