<?xml version="1.0" encoding="UTF-8" standalone="no"?>
<!DOCTYPE svg PUBLIC "-//W3C//DTD SVG 1.1//EN" "http://www.w3.org/Graphics/SVG/1.1/DTD/svg11.dtd">
<svg width="100%" height="100%" viewBox="0 0 2953 2953" version="1.1" xmlns="http://www.w3.org/2000/svg" xmlns:xlink="http://www.w3.org/1999/xlink" xml:space="preserve" xmlns:serif="http://www.serif.com/" style="fill-rule:evenodd;clip-rule:evenodd;stroke-linecap:square;stroke-linejoin:round;stroke-miterlimit:1.5;">
    <g transform="matrix(1.10473,0,0,1.10473,171.587,-568.474)">
        <path d="M637.724,2866.13L781.8,2823.92L1443.67,2823.92C1302.52,2884.75 1146.98,2918.45 983.634,2918.45C863.206,2918.45 747.024,2900.14 637.724,2866.13ZM1267.15,1738.13C1267.29,1738.14 1267.2,1738.11 1267.19,1738.12C1267.17,1738.2 1267.21,1738.11 1267.15,1738.13C1265.48,1738.81 1268.83,1737.43 1267.15,1738.13ZM598.669,1687.93L490.037,1737.21C523.695,1717.68 560.083,1701.22 598.669,1687.93Z" style="stroke:white;stroke-width:18.86px;"/>
    </g>
    <g transform="matrix(1.10473,0,0,1.10473,171.587,-568.474)">
        <g transform="matrix(1,0,0,1,0,-40.9823)">
            <rect x="326.35" y="2998.35" width="1821.8" height="155.195" style="stroke:white;stroke-width:18.86px;"/>
        </g>
        <g transform="matrix(1,0,0,0.494758,0,1504.44)">
            <path d="M2148.15,2936.63L326.35,2936.63L781.8,2666.91L1692.7,2666.91L2148.15,2936.63Z" style="stroke:white;stroke-width:23.9px;"/>
        </g>
    </g>
    <g transform="matrix(1.16296,0.516436,-0.45674,1.02853,1390.54,-852.001)">
        <path d="M215.865,2033.19C235.691,2002.26 258.762,1972.99 284.699,1945.7L215.865,2033.19ZM832.804,1724.41C831.714,1725.69 831.598,1727.05 832.804,1724.41C837.055,1724.35 828.536,1724.41 832.804,1724.41Z" style="stroke:white;stroke-width:17.34px;"/>
    </g>
    <g transform="matrix(-0.701021,-0.126658,0.091612,-0.50705,2602.64,1803.97)">
        <path d="M1537.35,507.945C1545.43,507.452 1529.15,507.945 1537.35,507.945C1534.21,512.594 1534.98,510.058 1537.35,507.945Z" style="stroke:white;stroke-width:33.51px;"/>
    </g>
    <g transform="matrix(1.10473,0,0,1.10473,171.587,-568.474)">
        <path d="M406.538,1753.91C405.482,1753.93 404.425,1753.94 403.365,1753.94C298.868,1753.94 214.029,1669.1 214.029,1564.6C214.029,1494 252.76,1432.37 310.115,1399.82L799.963,928.062L916.37,848.483L754.676,611.961C828.714,597.175 905.275,589.419 983.634,589.419C1626.35,589.419 2148.15,1111.22 2148.15,1753.94C2148.15,2105 1992.47,2419.99 1746.44,2633.57C1712.55,2663.05 1693.1,2705.77 1693.1,2750.68C1693.02,2787.32 1693.02,2823.92 1693.02,2823.92L784.99,2823.92C719.389,2643.13 709.12,2399.55 805.29,2182.98C900.554,1968.46 1084.85,1795.87 1267.19,1738.14C1269.58,1737.39 1265.48,1738.81 1267.15,1738.13C1267.25,1738.09 1267.15,1738.14 1267.19,1738.12C1316.61,1698.52 1348.17,1627.79 1361.98,1551.39C1371.4,1499.22 1365.28,1446.98 1350.12,1401.78C1291.45,1499.3 1184.58,1564.6 1062.58,1564.6C1060.6,1564.6 1058.62,1564.58 1056.64,1564.55C1054.75,1564.58 1052.86,1564.6 1050.96,1564.6C1007.09,1564.6 965.357,1555.37 927.604,1538.74L598.669,1687.93C561.645,1704.62 526.109,1721.23 490.037,1737.21L451.096,1749.39C445.267,1750.69 439.337,1751.73 433.319,1752.48C425.584,1753.44 417.705,1753.94 409.711,1753.94C408.651,1753.94 407.594,1753.93 406.538,1753.91Z" style="stroke:white;stroke-width:18.86px;"/>
    </g>
</svg>
