<?xml version="1.0" encoding="UTF-8" standalone="no"?>
<!DOCTYPE svg PUBLIC "-//W3C//DTD SVG 1.1//EN" "http://www.w3.org/Graphics/SVG/1.1/DTD/svg11.dtd">
<svg width="100%" height="100%" viewBox="0 0 2481 3508" version="1.1" xmlns="http://www.w3.org/2000/svg" xmlns:xlink="http://www.w3.org/1999/xlink" xml:space="preserve" xmlns:serif="http://www.serif.com/" style="fill-rule:evenodd;clip-rule:evenodd;stroke-linecap:square;stroke-linejoin:round;stroke-miterlimit:1.5;">
    <g transform="matrix(1.01991,0,0,1,-8.78502,-2.04812)">
        <g transform="matrix(1.47194,0,0,1.41588,-618.84,-1232.91)">
            <path d="M621.027,2959.48C907.866,2699.71 1001.77,2287.34 1006.99,1873.46C1055.53,1893.67 1207.04,1922.95 1262.95,1922.95C1317.34,1922.95 1474.67,1892.86 1522.13,1873.69C1527.81,2286.91 1593.36,2700.05 1879.82,2959.48L621.027,2959.48Z" style="fill:white;"/>
            <path d="M1879.82,2966.84L621.027,2966.84L616.52,2953.89C901.864,2695.47 994.858,2285.09 1000.05,1873.36C1000.08,1870.95 1001.23,1868.7 1003.12,1867.35C1005.01,1866.01 1007.4,1865.73 1009.52,1866.61C1057.58,1886.62 1207.6,1915.59 1262.95,1915.59C1316.82,1915.59 1472.65,1885.81 1519.66,1866.81C1521.78,1865.96 1524.16,1866.25 1526.03,1867.6C1527.9,1868.95 1529.04,1871.18 1529.07,1873.58C1534.72,2284.64 1599.37,2695.82 1884.33,2953.89L1879.82,2966.84ZM639.543,2952.13L1861.33,2952.13C1587.49,2692.85 1521.89,2289.15 1515.35,1883.98C1458.88,1903.29 1314.72,1930.31 1262.95,1930.31C1209.7,1930.31 1070.55,1903.99 1013.78,1883.87C1007.21,2289.62 914.62,2692.58 639.543,2952.13Z"/>
        </g>
        <g transform="matrix(1.01706,0,0,1,-36.641,-40.9823)">
            <rect x="326.35" y="2998.35" width="1821.8" height="155.195" style="fill:white;stroke:black;stroke-width:20.45px;"/>
        </g>
    </g>
    <g transform="matrix(0.749567,0,0,1,309.848,10.2581)">
        <path d="M1750.4,663.83L2020.93,663.83L2020.93,1408.46L1237.25,1534.93L453.572,1408.46L453.572,663.83L738.582,663.83L738.582,1099.38L909.699,1099.38L909.699,663.83L1151.69,663.83L1151.69,1099.38L1322.81,1099.38L1322.81,663.83L1579.29,663.83L1579.29,1099.38L1750.4,1099.38L1750.4,663.83Z" style="fill:white;stroke:black;stroke-width:23.58px;"/>
    </g>
</svg>
